<?xml version="1.0" encoding="utf-8" ?>
<svg xmlns="http://www.w3.org/2000/svg" xmlns:xlink="http://www.w3.org/1999/xlink" width="1024" height="1024">
	<path fill="#FCFCFC" d="M0 0L1024 0L1024 1024L0 1024L0 0Z"/>
	<path fill="#5E8ABE" d="M836.133 192.56C837.207 192.46 838.439 192.28 839.507 192.406C842.86 192.802 847.081 197.274 849.006 199.814C850.722 202.077 852.224 205.032 851.67 207.963C851.142 210.764 849.242 212.354 847.011 213.894C845.838 213.909 844.652 213.932 843.483 213.832C839.811 213.519 835.016 209.041 832.944 206.212C831.325 204.001 830.315 201.373 830.872 198.61C831.461 195.691 833.834 194.126 836.133 192.56Z"/>
	<path fill="#5E8ABE" d="M67.6122 605.519C69.5976 605.484 71.3207 605.576 73.0345 606.691C79.129 610.655 82.8791 635.578 84.5543 642.959C84.3937 643.421 84.2373 643.884 84.0559 644.339C82.8162 647.441 81.5513 648.713 78.499 650.016C77.3853 650.034 76.223 650.077 75.1259 649.86Q74.7861 649.796 74.4545 649.697Q74.1229 649.599 73.8029 649.468Q73.4829 649.336 73.1778 649.174Q72.8727 649.011 72.5855 648.818Q72.2983 648.625 72.0321 648.404Q71.7658 648.184 71.5232 647.937Q71.2806 647.691 71.064 647.421Q70.8475 647.151 70.6592 646.861C68.2081 643.079 60.9592 615.021 61.9756 610.922C62.6658 608.139 65.299 606.784 67.6122 605.519Z"/>
	<path fill="#5E8ABE" d="M104.013 707.507C105.392 707.45 106.733 707.47 108.098 707.71C110.42 708.119 111.727 709.39 113.049 711.256C119.169 719.9 123.4 730.564 128.69 739.79C134.576 750.057 141.729 759.648 148.537 769.311C150.883 772.642 154.723 777.439 153.754 781.768C153.176 784.349 150.855 785.808 148.82 787.195C147.796 787.411 146.795 787.515 145.751 787.397C143.07 787.093 141.103 785.238 139.433 783.276C131.793 774.293 98.1728 723.29 99.3909 713.299C99.7211 710.591 102.054 709.072 104.013 707.507Z"/>
	<path fill="#5E8ABE" d="M504.111 49.7371Q510.881 49.6344 517.651 49.7316Q524.422 49.8288 531.186 50.1257Q537.95 50.4227 544.703 50.9191Q551.456 51.4155 558.191 52.111Q564.926 52.8065 571.638 53.7004Q578.349 54.5943 585.032 55.6859Q591.714 56.7775 598.361 58.0659Q605.008 59.3542 611.615 60.8382Q618.221 62.3221 624.781 64.0003Q631.34 65.6786 637.848 67.5496Q644.355 69.4207 650.804 71.483Q657.253 73.5453 663.639 75.7971Q670.024 78.0488 676.341 80.488Q682.657 82.9272 688.899 85.5517Q695.14 88.1762 701.302 90.9838Q707.463 93.7913 713.539 96.7795C721.635 100.708 729.73 104.758 737.584 109.154C749.506 115.828 760.9 123.37 772.311 130.866C778.59 134.99 785.546 139.014 791.135 144.045C793.237 145.938 795.346 148.308 796.192 151.066C796.654 152.572 796.693 154.128 795.797 155.502C793.994 158.268 790.16 159.435 787.081 158.618C782.383 157.372 752.127 135.181 745.049 130.787Q726.336 119.032 706.297 109.717C623.101 70.6408 533.254 55.154 442.132 70.0688C320.236 90.0208 217.871 155.088 145.947 255.132C140.627 262.543 135.974 270.508 131.225 278.293Q128.348 282.959 125.585 287.695Q122.822 292.43 120.176 297.231Q117.53 302.032 115.001 306.897Q112.473 311.761 110.064 316.686Q107.655 321.61 105.367 326.592Q103.079 331.574 100.914 336.61Q98.7482 341.647 96.7061 346.734Q94.664 351.822 92.7466 356.958Q90.8293 362.094 89.0379 367.275Q87.2465 372.457 85.5821 377.68Q83.9177 382.903 82.3812 388.166Q80.8448 393.428 79.4372 398.727Q78.0297 404.025 76.7519 409.356Q75.4741 414.688 74.3268 420.048Q73.1795 425.409 72.1633 430.796Q71.1472 436.184 70.2628 441.594C66.555 464.285 65.5662 487.375 65.3978 510.333C65.3608 515.374 65.2791 520.427 65.3982 525.466C65.4832 529.064 65.9087 532.775 65.6969 536.361C65.5666 538.566 65.2358 541.018 63.7951 542.795C62.4883 544.407 59.8003 545.828 57.7446 546.021C56.2624 546.16 54.9386 545.651 53.8648 544.639C50.3872 541.36 50.0857 535.752 49.9786 531.274C49.4033 507.213 50.0278 482.434 52.8253 458.508Q53.372 453.845 54.0135 449.194Q54.6549 444.544 55.3908 439.907Q56.1267 435.27 56.9567 430.649Q57.7868 426.028 58.7106 421.425Q59.6345 416.822 60.6518 412.239Q61.669 407.656 62.7793 403.094Q63.8896 398.532 65.0924 393.994Q66.2953 389.456 67.5901 384.943Q68.885 380.431 70.2714 375.945Q71.6578 371.46 73.1351 367.003Q74.6124 362.547 76.1801 358.122Q77.7477 353.696 79.405 349.304Q81.0624 344.911 82.8087 340.553Q84.555 336.195 86.3896 331.874Q88.2242 327.552 90.1463 323.269Q92.0684 318.986 94.0772 314.742Q96.086 310.499 98.1807 306.297Q100.275 302.096 102.455 297.937Q104.635 293.779 106.899 289.666Q109.163 285.553 111.51 281.487Q113.857 277.421 116.286 273.404Q118.715 269.386 121.225 265.419Q123.736 261.452 126.326 257.536Q128.917 253.621 131.587 249.759Q134.257 245.897 137.004 242.091Q139.752 238.284 142.576 234.534Q145.401 230.784 148.301 227.092Q151.201 223.4 154.176 219.768Q157.151 216.135 160.199 212.565Q163.247 208.994 166.367 205.486Q169.487 201.977 172.677 198.533Q175.868 195.089 179.128 191.711Q183.048 187.585 187.07 183.557Q191.091 179.53 195.212 175.604Q199.333 171.679 203.551 167.857Q207.768 164.035 212.08 160.32Q216.392 156.605 220.795 152.998Q225.198 149.392 229.689 145.896Q234.181 142.4 238.758 139.018Q243.335 135.636 247.995 132.368Q252.656 129.101 257.396 125.951Q262.136 122.801 266.954 119.77Q271.771 116.739 276.663 113.83Q281.554 110.92 286.517 108.133Q291.479 105.347 296.51 102.685Q301.541 100.023 306.636 97.4868Q311.731 94.951 316.888 92.5432Q322.045 90.1353 327.261 87.8568Q332.476 85.5783 337.747 83.4306Q343.018 81.283 348.341 79.2675Q353.663 77.2519 359.034 75.3698Q364.406 73.4877 369.822 71.7401Q375.239 69.9926 380.697 68.3807Q386.156 66.7688 391.653 65.2935Q397.15 63.8183 402.682 62.4806Q408.214 61.143 413.778 59.9437Q419.341 58.7445 424.933 57.6844Q430.525 56.6243 436.142 55.704Q441.758 54.7837 447.396 54.0039Q453.034 53.224 458.69 52.585Q464.345 51.946 470.015 51.4482Q475.684 50.9505 481.365 50.5943Q487.045 50.2382 492.732 50.0238Q498.42 49.8095 504.111 49.7371Z"/>
	<path fill="#5E8ABE" d="M880.037 238.539C881.799 238.734 883.715 238.844 885.155 239.995C890.578 244.326 898.62 258.588 902.776 265.041C940.97 324.348 961.141 386.165 971.165 455.634C973.08 468.905 973.544 482.485 974.017 495.872Q974.165 500 974.24 504.13Q974.314 508.261 974.314 512.392Q974.313 516.523 974.239 520.653Q974.165 524.783 974.016 528.911Q973.867 533.04 973.645 537.164Q973.422 541.289 973.125 545.41Q972.828 549.53 972.457 553.644Q972.086 557.758 971.642 561.865Q971.197 565.972 970.678 570.07Q970.16 574.169 969.568 578.257Q968.976 582.345 968.31 586.422Q967.645 590.499 966.906 594.563Q966.167 598.628 965.355 602.678Q964.544 606.728 963.659 610.764Q962.775 614.799 961.819 618.817Q960.862 622.836 959.833 626.837Q958.805 630.838 957.704 634.819Q956.604 638.801 955.432 642.762Q954.26 646.723 953.017 650.663Q951.774 654.602 950.46 658.519Q949.147 662.435 947.763 666.328Q946.38 670.22 944.926 674.087Q943.473 677.953 941.95 681.793Q940.427 685.634 938.836 689.446Q937.245 693.258 935.585 697.04Q933.925 700.823 932.198 704.576Q930.47 708.328 928.675 712.049Q926.881 715.769 925.02 719.457Q923.158 723.145 921.231 726.799Q919.304 730.453 917.312 734.071Q915.319 737.69 913.262 741.272Q911.204 744.854 909.083 748.399C901.73 760.695 894.134 772.903 885.529 784.375C872.558 801.668 858.5 818.936 843.386 834.388Q840.099 837.751 836.745 841.047Q833.391 844.343 829.97 847.569Q826.55 850.796 823.064 853.953Q819.579 857.11 816.03 860.195Q812.482 863.281 808.871 866.293Q805.26 869.306 801.589 872.245Q797.918 875.183 794.188 878.047Q790.458 880.911 786.671 883.698Q782.883 886.485 779.04 889.195Q775.197 891.905 771.299 894.536Q767.402 897.167 763.452 899.719Q759.502 902.27 755.501 904.741Q751.5 907.212 747.449 909.601Q743.399 911.99 739.301 914.296Q735.203 916.602 731.059 918.825Q726.915 921.047 722.726 923.185Q718.538 925.323 714.307 927.376Q710.076 929.428 705.805 931.394Q701.533 933.36 697.222 935.239Q692.911 937.118 688.563 938.909Q684.215 940.701 679.832 942.403Q675.448 944.105 671.031 945.718Q666.614 947.331 662.165 948.854Q657.716 950.377 653.237 951.81Q648.758 953.242 644.251 954.583Q639.744 955.924 635.21 957.174Q630.677 958.423 626.119 959.58Q621.561 960.737 616.981 961.801Q612.4 962.866 607.799 963.836Q603.198 964.807 598.578 965.685Q593.958 966.562 589.321 967.346Q584.685 968.129 580.033 968.818C452.209 986.581 330.634 954.225 227.802 876.533C226.058 875.114 224.166 873.702 222.885 871.829C221.581 869.923 220.797 867.76 221.383 865.451C221.869 863.533 223.128 861.72 224.843 860.716C229.41 858.042 233.862 861.362 237.47 864.027C245.358 869.853 253.032 876.005 261.143 881.524Q267.956 886.165 274.938 890.548Q281.92 894.932 289.061 899.051Q296.202 903.17 303.492 907.019Q310.782 910.868 318.211 914.441Q325.64 918.015 333.198 921.308Q340.755 924.602 348.43 927.61Q356.106 930.618 363.888 933.338Q371.67 936.057 379.549 938.483Q384.221 939.922 388.923 941.26Q393.626 942.598 398.356 943.834Q403.086 945.07 407.841 946.203Q412.597 947.336 417.376 948.367Q422.155 949.397 426.955 950.323Q431.755 951.25 436.574 952.073Q441.393 952.896 446.229 953.614Q451.065 954.332 455.915 954.946Q460.765 955.56 465.627 956.068Q470.49 956.577 475.362 956.98Q480.234 957.384 485.113 957.682Q489.993 957.98 494.878 958.172Q499.763 958.365 504.651 958.451Q509.539 958.538 514.428 958.519Q519.317 958.5 524.204 958.376Q529.091 958.251 533.975 958.021Q538.858 957.791 543.735 957.455Q548.612 957.119 553.481 956.678Q558.35 956.237 563.208 955.691Q568.067 955.144 572.912 954.493Q577.757 953.842 582.587 953.086Q587.417 952.331 592.23 951.471Q597.042 950.611 601.835 949.647Q606.628 948.683 611.399 947.616Q616.17 946.548 620.916 945.378Q625.663 944.208 630.383 942.936Q635.104 941.663 639.795 940.289Q644.487 938.915 649.148 937.44Q653.809 935.964 658.437 934.388Q663.065 932.813 667.657 931.137Q672.25 929.462 676.806 927.688Q681.361 925.913 685.877 924.041C701.963 917.312 717.524 908.957 732.862 900.677C747.753 892.639 761.667 882.985 775.353 873.069Q779.027 870.417 782.645 867.691Q786.264 864.965 789.826 862.165Q793.387 859.365 796.891 856.493Q800.395 853.621 803.839 850.678Q807.283 847.734 810.666 844.721Q814.049 841.707 817.37 838.625Q820.691 835.543 823.947 832.394Q827.204 829.244 830.396 826.029Q833.587 822.813 836.712 819.533Q839.837 816.252 842.894 812.909Q845.951 809.565 848.939 806.159Q851.927 802.754 854.844 799.287Q857.762 795.821 860.608 792.296Q863.453 788.771 866.226 785.188Q868.999 781.605 871.698 777.966Q874.397 774.327 877.021 770.634Q879.645 766.94 882.192 763.194Q884.74 759.447 887.21 755.649Q889.68 751.852 892.072 748.004Q894.464 744.156 896.776 740.26Q899.089 736.364 901.321 732.422Q903.553 728.479 905.704 724.492Q907.855 720.504 909.924 716.474Q911.992 712.443 913.978 708.371Q915.964 704.298 917.865 700.186Q919.767 696.074 921.584 691.924Q923.401 687.774 925.133 683.587Q926.865 679.401 928.51 675.18Q930.156 670.958 931.714 666.705Q933.273 662.451 934.744 658.165Q936.215 653.88 937.598 649.566Q938.981 645.252 940.275 640.91Q941.75 635.972 943.111 631.002Q944.472 626.031 945.72 621.031Q946.967 616.031 948.099 611.004Q949.232 605.976 950.25 600.924Q951.267 595.873 952.169 590.799Q953.07 585.725 953.856 580.632Q954.641 575.538 955.31 570.429Q955.979 565.319 956.531 560.195Q957.083 555.071 957.517 549.936Q957.952 544.801 958.269 539.658Q958.586 534.514 958.785 529.365Q958.984 524.215 959.066 519.062Q959.147 513.91 959.111 508.757Q959.075 503.603 958.921 498.452Q958.767 493.301 958.495 488.155Q958.223 483.009 957.834 477.87Q957.444 472.732 956.938 467.603Q956.431 462.475 955.807 457.359Q955.183 452.244 954.442 447.144Q953.702 442.044 952.844 436.962Q951.987 431.881 951.014 426.82Q950.041 421.76 948.953 416.722Q947.864 411.685 946.661 406.674Q945.458 401.664 944.14 396.681Q942.823 391.699 941.391 386.749Q939.96 381.798 938.416 376.881Q936.872 371.965 935.216 367.085Q933.56 362.205 931.793 357.364Q930.026 352.523 928.149 347.724Q926.271 342.924 924.285 338.169Q922.298 333.414 920.204 328.706Q918.109 323.997 915.907 319.338C908.311 303.488 899.703 287.17 890.129 272.431C887.72 268.722 885.342 264.956 882.72 261.393C879.891 257.549 876.266 253.657 874.119 249.397C873.295 247.763 873.092 245.916 873.733 244.181C874.855 241.139 877.199 239.735 880.037 238.539Z"/>
	<path fill="#1A2F4C" d="M482.055 186.929C484.19 178.272 488.111 171.697 495.878 166.968C502.969 162.651 511.958 161.074 520.035 163.177Q520.755 163.371 521.463 163.602Q522.172 163.832 522.868 164.098Q523.565 164.364 524.247 164.665Q524.929 164.966 525.595 165.301Q526.26 165.635 526.909 166.003Q527.557 166.371 528.186 166.772Q528.814 167.172 529.422 167.603Q530.03 168.035 530.615 168.496Q531.2 168.958 531.762 169.448Q532.323 169.939 532.859 170.457Q533.394 170.975 533.903 171.52Q534.412 172.064 534.893 172.634Q535.374 173.203 535.825 173.796Q536.277 174.389 536.698 175.004Q537.119 175.62 537.508 176.255Q537.897 176.891 538.254 177.545C539.764 180.281 540.824 183.398 541.663 186.401C586.562 193.013 629.753 203.388 668.918 227.252C672.657 223.14 676.264 218.851 680.363 215.091Q681.798 213.775 683.288 212.523Q684.778 211.271 686.321 210.084Q687.864 208.897 689.457 207.778Q691.05 206.659 692.69 205.611Q694.33 204.562 696.013 203.585Q697.697 202.608 699.422 201.705Q701.146 200.802 702.908 199.974Q704.67 199.146 706.466 198.396Q708.262 197.645 710.089 196.973Q711.916 196.301 713.77 195.709Q715.624 195.116 717.502 194.604Q719.38 194.093 721.279 193.663Q723.177 193.233 725.093 192.886Q727.008 192.538 728.937 192.274Q730.865 192.01 732.804 191.83Q734.742 191.649 736.686 191.553Q737.818 191.508 738.951 191.49Q740.083 191.473 741.216 191.483Q742.349 191.493 743.481 191.531Q744.614 191.57 745.745 191.636Q746.875 191.702 748.004 191.796Q749.133 191.89 750.26 192.011Q751.386 192.133 752.509 192.282Q753.632 192.432 754.751 192.608Q755.87 192.785 756.984 192.99Q758.099 193.194 759.207 193.426Q760.316 193.658 761.419 193.917Q762.522 194.176 763.618 194.462Q764.714 194.748 765.803 195.061Q766.892 195.374 767.973 195.713Q769.053 196.053 770.125 196.419Q771.198 196.785 772.26 197.178Q773.323 197.57 774.376 197.989Q775.428 198.407 776.471 198.851Q777.513 199.295 778.544 199.765Q779.575 200.235 780.594 200.73Q781.613 201.225 782.619 201.745Q783.626 202.265 784.619 202.809Q785.612 203.354 786.592 203.923Q787.572 204.491 788.537 205.084Q789.503 205.677 790.453 206.293Q791.404 206.909 792.339 207.549Q793.274 208.188 794.193 208.851Q795.112 209.513 796.015 210.198Q796.917 210.883 797.802 211.589Q798.688 212.296 799.555 213.025Q800.423 213.753 801.273 214.502Q802.122 215.252 802.953 216.022C819.839 231.572 830.724 255.043 831.537 277.988C832.419 302.846 824.026 326.282 806.965 344.478C803.465 348.209 799.678 351.575 795.736 354.827C820.052 400.057 830.403 431.05 837.832 482.149C845.868 484.251 853.22 489.893 857.414 497.042Q857.798 497.698 858.15 498.372Q858.502 499.045 858.819 499.736Q859.137 500.426 859.421 501.132Q859.704 501.837 859.952 502.555Q860.2 503.274 860.413 504.004Q860.625 504.733 860.801 505.473Q860.977 506.212 861.117 506.959Q861.256 507.707 861.358 508.46Q861.461 509.213 861.526 509.97Q861.591 510.728 861.618 511.487Q861.646 512.247 861.635 513.007Q861.625 513.767 861.578 514.525Q861.53 515.284 861.445 516.039Q861.36 516.795 861.238 517.545Q861.116 518.295 860.957 519.038Q860.798 519.781 860.602 520.516C858.637 527.949 853.593 534.066 846.975 537.849C844.082 539.502 840.936 540.6 837.712 541.406C835.039 584.382 818.529 632.828 796.455 669.649Q797.337 670.342 798.202 671.056Q799.066 671.771 799.913 672.506Q800.76 673.242 801.588 673.998Q802.416 674.755 803.225 675.532Q804.034 676.309 804.823 677.106Q805.612 677.902 806.381 678.719Q807.151 679.535 807.899 680.37Q808.648 681.205 809.376 682.058Q810.104 682.912 810.81 683.783Q811.516 684.655 812.2 685.543Q812.885 686.432 813.547 687.337Q814.209 688.242 814.848 689.164Q815.487 690.086 816.104 691.023Q816.72 691.96 817.312 692.912Q817.905 693.864 818.474 694.831Q819.042 695.798 819.587 696.778Q820.131 697.759 820.651 698.753Q821.171 699.746 821.666 700.753Q822.161 701.759 822.631 702.778Q823.101 703.796 823.545 704.826Q823.99 705.856 824.408 706.896Q824.827 707.937 825.219 708.988Q825.612 710.038 825.978 711.098Q826.345 712.158 826.684 713.227Q827.024 714.296 827.337 715.373Q827.65 716.45 827.937 717.535Q828.223 718.619 828.482 719.71Q828.741 720.802 828.973 721.899Q829.205 722.996 829.409 724.099Q829.614 725.202 829.791 726.309Q829.968 727.417 830.117 728.528Q830.266 729.64 830.388 730.755C833.238 754.986 825.58 778.546 810.457 797.534Q809.769 798.382 809.06 799.213Q808.351 800.044 807.622 800.857Q806.893 801.671 806.145 802.466Q805.396 803.262 804.629 804.039Q803.861 804.816 803.075 805.574Q802.289 806.332 801.484 807.071Q800.68 807.809 799.857 808.528Q799.035 809.247 798.196 809.946Q797.356 810.645 796.5 811.323Q795.644 812.001 794.772 812.658Q793.899 813.315 793.011 813.951Q792.123 814.587 791.219 815.201Q790.316 815.815 789.398 816.406Q788.48 816.998 787.548 817.567Q786.616 818.136 785.67 818.683Q784.724 819.229 783.765 819.752Q782.807 820.275 781.835 820.775Q780.864 821.275 779.881 821.751Q778.898 822.227 777.904 822.679Q776.909 823.13 775.904 823.558Q774.899 823.986 773.884 824.389Q772.869 824.792 771.844 825.17Q770.82 825.548 769.786 825.901Q768.753 826.254 767.711 826.582Q766.669 826.91 765.619 827.212Q764.57 827.515 763.513 827.791Q762.457 828.068 761.394 828.319Q760.331 828.57 759.262 828.795Q758.193 829.02 757.119 829.219Q756.045 829.418 754.967 829.591Q753.888 829.764 752.806 829.91Q751.724 830.057 750.638 830.177C726.904 832.805 701.354 825.656 682.817 810.593C677.373 806.17 672.376 801.053 667.811 795.731C634.236 820.756 582.606 833.047 541.419 837.146C538.97 846.33 535.061 854.291 526.439 859.209C519.678 863.064 511.041 863.937 503.564 861.791C495.698 859.535 489.52 854.015 485.714 846.888C484.155 843.97 483.147 840.917 482.265 837.741Q476.281 837.082 470.325 836.204Q464.369 835.326 458.449 834.23Q452.53 833.134 446.654 831.822Q440.778 830.51 434.955 828.984Q429.131 827.458 423.367 825.719Q417.603 823.98 411.907 822.031Q406.211 820.083 400.59 817.927Q394.969 815.771 389.431 813.41Q379.283 809.206 369.339 804.542C364.547 802.286 359.73 799.659 354.773 797.832C337.879 816.655 315.811 829.135 290.137 830.487C264.641 831.83 240.934 824.204 221.956 806.801C203.211 789.612 194.576 768.06 193.184 743.02C193.262 739.328 193.365 735.631 193.718 731.954C196.15 706.592 209.612 685.283 229.001 669.367C225.218 662.186 221.084 655.184 217.562 647.87C201.198 613.877 191.641 578.461 187.426 541.014C183.46 539.951 179.663 538.704 176.118 536.588C169.289 532.512 164.806 526.048 162.978 518.383Q162.8 517.65 162.659 516.909Q162.517 516.167 162.413 515.42Q162.308 514.673 162.241 513.921Q162.173 513.17 162.143 512.416Q162.113 511.662 162.12 510.907Q162.128 510.153 162.172 509.4Q162.217 508.647 162.299 507.896Q162.381 507.146 162.499 506.401Q162.618 505.656 162.774 504.918Q162.929 504.179 163.121 503.45Q163.313 502.72 163.541 502.001Q163.769 501.281 164.032 500.574Q164.295 499.867 164.593 499.174Q164.891 498.481 165.223 497.803Q165.555 497.125 165.92 496.465Q166.285 495.805 166.682 495.163C171.4 487.678 178.703 483.589 187.124 481.7Q187.465 477.503 187.929 473.318Q188.393 469.133 188.981 464.964Q189.568 460.794 190.278 456.644Q190.988 452.494 191.82 448.366Q192.651 444.238 193.604 440.137Q194.557 436.036 195.631 431.964Q196.704 427.893 197.897 423.854Q199.09 419.816 200.401 415.815Q201.712 411.814 203.141 407.853Q204.569 403.892 206.114 399.975Q207.658 396.058 209.317 392.188Q210.976 388.318 212.749 384.498Q214.521 380.679 216.405 376.913Q218.289 373.148 220.284 369.439Q222.278 365.731 224.38 362.083Q226.483 358.435 228.692 354.85Q226.537 353.047 224.433 351.185C205.143 333.999 194.686 311.209 193.237 285.602C192.292 261.734 200.352 237.698 216.756 220.102Q217.502 219.312 218.267 218.54Q219.032 217.769 219.815 217.016Q220.599 216.263 221.4 215.529Q222.202 214.796 223.021 214.082Q223.84 213.368 224.677 212.674Q225.513 211.981 226.366 211.307Q227.219 210.634 228.088 209.982Q228.957 209.33 229.842 208.699Q230.727 208.068 231.626 207.459Q232.526 206.85 233.44 206.263Q234.355 205.676 235.283 205.111Q236.211 204.546 237.153 204.004Q238.095 203.462 239.05 202.944Q240.004 202.425 240.972 201.929Q241.939 201.434 242.917 200.962Q243.896 200.49 244.886 200.042Q245.876 199.594 246.877 199.171Q247.877 198.747 248.888 198.348Q249.899 197.949 250.919 197.574Q251.939 197.2 252.968 196.85Q253.996 196.501 255.033 196.177Q256.07 195.852 257.115 195.553Q258.16 195.254 259.211 194.98Q260.263 194.707 261.321 194.459Q262.379 194.211 263.442 193.989Q264.506 193.767 265.575 193.571Q266.644 193.375 267.717 193.205Q268.79 193.035 269.867 192.891Q270.944 192.747 272.024 192.629Q273.104 192.511 274.187 192.42Q275.27 192.329 276.354 192.264Q277.439 192.199 278.525 192.16C302.771 191.484 326.494 200.02 344.1 216.852C347.786 220.376 351.012 224.161 354.097 228.214C384.311 211.35 412.736 200.357 446.444 192.638C457.956 190.002 470.24 187.473 482.055 186.929Z"/>
	<path fill="#5E8ABE" d="M508.866 178.55C511.556 178.411 514.221 178.307 516.793 179.249Q517.464 179.492 518.106 179.804Q518.748 180.116 519.353 180.493Q519.958 180.871 520.52 181.311Q521.082 181.75 521.595 182.247Q522.108 182.743 522.565 183.29Q523.023 183.838 523.42 184.431Q523.818 185.024 524.15 185.655Q524.483 186.286 524.747 186.949C526.21 190.614 526.086 194.629 524.522 198.24C522.732 202.375 519.49 204.757 515.454 206.441C512.345 206.643 509.655 206.821 506.711 205.552Q506.038 205.265 505.398 204.911Q504.758 204.556 504.158 204.138Q503.558 203.72 503.004 203.242Q502.45 202.765 501.948 202.233Q501.446 201.701 501.001 201.121Q500.556 200.54 500.173 199.917Q499.789 199.294 499.472 198.635Q499.155 197.976 498.907 197.288C497.528 193.497 497.667 189.045 499.582 185.457C501.682 181.525 504.793 179.866 508.866 178.55Z"/>
	<path fill="#5E8ABE" d="M190.363 497.099C192.855 497.058 195.316 497.293 197.635 498.274Q198.307 498.554 198.946 498.902Q199.586 499.251 200.186 499.663Q200.786 500.075 201.34 500.547Q201.895 501.019 202.398 501.546Q202.9 502.073 203.346 502.648Q203.792 503.224 204.175 503.843Q204.559 504.462 204.877 505.117Q205.195 505.772 205.444 506.456Q205.694 507.133 205.875 507.832Q206.055 508.532 206.163 509.246Q206.272 509.959 206.307 510.681Q206.342 511.402 206.304 512.123Q206.265 512.844 206.154 513.558Q206.042 514.271 205.859 514.969Q205.675 515.668 205.422 516.344Q205.168 517.02 204.847 517.667C202.744 521.975 199.2 524.117 194.848 525.61C190.937 525.992 187.52 525.625 184.158 523.46Q183.556 523.069 182.997 522.617Q182.438 522.166 181.929 521.66Q181.419 521.153 180.964 520.597Q180.51 520.041 180.115 519.441Q179.719 518.841 179.388 518.204Q179.057 517.567 178.792 516.899Q178.528 516.231 178.334 515.539Q178.14 514.848 178.018 514.14C177.331 510.259 178.182 506.097 180.483 502.879C182.935 499.45 186.334 497.87 190.363 497.099Z"/>
	<path fill="#5E8ABE" d="M511.466 817.585C514.349 817.394 517.068 817.967 519.52 819.526C522.67 821.528 524.578 824.718 525.374 828.321C526.313 832.572 525.583 837.243 523.196 840.905C520.54 844.98 517.19 846.444 512.622 847.455C510.088 847.521 507.673 846.971 505.428 845.781C502.028 843.978 499.695 840.926 498.648 837.24C497.475 833.114 497.988 828.451 500.261 824.785C502.92 820.498 506.733 818.736 511.466 817.585Z"/>
	<path fill="#5E8ABE" d="M828.779 497.06C831.693 496.829 834.462 496.799 837.165 498.059Q837.821 498.365 838.444 498.735Q839.066 499.106 839.648 499.537Q840.229 499.968 840.765 500.456Q841.3 500.944 841.784 501.483Q842.267 502.022 842.694 502.607Q843.121 503.192 843.487 503.817Q843.853 504.442 844.154 505.101Q844.455 505.759 844.688 506.445C846.14 510.588 846.022 515.302 844.049 519.257C841.893 523.579 838.488 525.747 834.054 527.285C831.001 527.593 828.188 527.334 825.381 525.981C821.728 524.218 819.059 521.008 817.776 517.181Q817.517 516.411 817.338 515.618Q817.158 514.826 817.059 514.019Q816.96 513.213 816.944 512.4Q816.927 511.588 816.992 510.778Q817.057 509.968 817.204 509.169Q817.351 508.37 817.577 507.589Q817.804 506.809 818.108 506.055Q818.412 505.302 818.791 504.583C821.03 500.428 824.424 498.461 828.779 497.06Z"/>
	<path fill="#FCFCFC" d="M278.853 668.217C296.918 666.522 316.392 672.863 330.603 683.926Q332.008 685.02 333.357 686.182Q334.707 687.344 335.997 688.572Q337.287 689.799 338.516 691.089Q339.744 692.378 340.907 693.727Q342.07 695.076 343.164 696.48Q344.259 697.885 345.284 699.341Q346.308 700.798 347.259 702.304Q348.21 703.81 349.085 705.36Q349.961 706.911 350.758 708.503Q351.556 710.095 352.274 711.725Q352.993 713.355 353.629 715.018Q354.266 716.681 354.82 718.373Q355.374 720.066 355.844 721.784Q356.313 723.501 356.697 725.24Q357.082 726.979 357.379 728.735Q357.677 730.491 357.888 732.259Q358.099 734.078 358.221 735.905Q358.342 737.732 358.373 739.563Q358.404 741.394 358.344 743.225Q358.285 745.055 358.135 746.88Q357.985 748.705 357.745 750.521Q357.505 752.336 357.176 754.137Q356.846 755.939 356.428 757.722Q356.011 759.505 355.505 761.265Q355 763.025 354.408 764.758Q353.816 766.491 353.139 768.192Q352.462 769.894 351.702 771.56Q350.942 773.226 350.101 774.852Q349.259 776.479 348.339 778.062Q347.418 779.645 346.42 781.18Q345.422 782.716 344.35 784.2Q343.277 785.684 342.133 787.114C328.677 803.864 310.681 812.143 289.62 814.356Q287.757 814.49 285.889 814.532Q284.022 814.574 282.154 814.524Q280.287 814.474 278.424 814.332Q276.561 814.191 274.708 813.958Q272.855 813.724 271.015 813.4Q269.175 813.076 267.354 812.662Q265.532 812.248 263.733 811.745Q261.934 811.241 260.162 810.65Q258.39 810.059 256.649 809.381Q254.908 808.704 253.203 807.941Q251.498 807.178 249.832 806.333Q248.166 805.487 246.544 804.561Q244.922 803.635 243.347 802.63Q241.773 801.624 240.249 800.543Q238.726 799.462 237.258 798.307Q235.79 797.152 234.38 795.926Q233.041 794.775 231.76 793.559Q230.48 792.344 229.26 791.067Q228.041 789.79 226.886 788.454Q225.731 787.119 224.643 785.728Q223.555 784.338 222.536 782.895Q221.518 781.453 220.572 779.962Q219.626 778.471 218.754 776.936Q217.882 775.4 217.087 773.823Q216.292 772.247 215.575 770.633Q214.859 769.019 214.222 767.372Q213.586 765.725 213.031 764.049Q212.477 762.373 212.005 760.671Q211.534 758.969 211.146 757.247Q210.759 755.524 210.457 753.784Q210.155 752.045 209.939 750.292Q209.723 748.54 209.593 746.779Q209.465 744.948 209.427 743.112Q209.39 741.277 209.443 739.442Q209.497 737.607 209.641 735.777Q209.785 733.947 210.02 732.126Q210.255 730.305 210.579 728.498Q210.904 726.692 211.318 724.903Q211.731 723.115 212.233 721.349Q212.735 719.583 213.323 717.844Q213.912 716.105 214.586 714.397Q215.26 712.69 216.017 711.018Q216.775 709.346 217.614 707.713Q218.454 706.08 219.373 704.491Q220.292 702.902 221.289 701.361Q222.286 699.819 223.358 698.329Q224.43 696.839 225.574 695.403Q226.719 693.968 227.933 692.591C240.814 677.914 259.531 669.533 278.853 668.217Z"/>
	<path fill="#1A2F4C" d="M282.299 686.129C287.76 685.682 293.168 686.756 297.875 689.64C305.077 694.051 308.832 701.642 310.711 709.605Q310.98 710.695 311.194 711.796Q311.409 712.898 311.57 714.009Q311.73 715.12 311.836 716.237Q311.942 717.354 311.994 718.476Q312.045 719.597 312.041 720.719Q312.037 721.842 311.978 722.962Q311.919 724.083 311.805 725.2Q311.692 726.316 311.523 727.426Q311.355 728.536 311.133 729.636Q310.91 730.736 310.634 731.824Q310.358 732.912 310.029 733.985Q309.7 735.058 309.318 736.114Q308.937 737.169 308.504 738.205Q308.072 739.24 307.589 740.254Q307.106 741.267 306.574 742.255Q306.043 743.244 305.463 744.205C312.681 747.669 320.155 751.397 326.009 756.965C330.361 761.103 331.981 765.557 332.049 771.484C332.104 776.246 332.227 782.26 328.489 785.787C326.838 787.345 324.769 788.073 322.571 788.48C314.448 789.985 295.998 788.802 286.497 788.786C277.551 788.75 251.241 790.266 244.336 788.022C241.456 787.086 239.074 785.207 237.843 782.403C235.786 777.72 236.22 768.539 238.08 763.851C241.801 754.481 255.831 748.582 264.399 744.767C260.738 738.9 257.999 733.262 256.931 726.356C255.357 716.179 257.513 705.26 263.696 696.918C268.368 690.613 274.672 687.274 282.299 686.129Z"/>
	<path fill="#FCFCFC" d="M285.018 702.586C286.186 702.746 287.262 702.899 288.337 703.411C291.521 704.929 293.68 708.223 294.76 711.477C296.687 717.282 296.672 724.448 293.78 729.936C291.543 734.179 288.706 736.347 284.159 737.681C282.791 737.336 281.307 736.992 280.072 736.295C276.41 734.23 273.997 729.942 272.996 725.984C271.61 720.502 272.157 713.941 275.152 709.057C277.719 704.87 280.363 703.59 285.018 702.586Z"/>
	<path fill="#FCFCFC" d="M278.104 752.331C282.73 753.079 287.151 753.38 291.834 753.211C292.992 754.6 294.271 756.266 295.74 757.327C300.032 760.426 314.359 765.775 316.241 770.026L315.721 770.863C310.91 772.926 299.722 771.867 294.125 771.83C289.306 771.863 259.688 771.419 257.714 772.032C257.527 772.09 257.367 772.216 257.193 772.308L256.922 771.217C256.275 771.239 255.383 771.168 254.77 771.338C254.484 771.417 254.217 771.555 253.941 771.663L253.477 771.271C254.569 764.869 273.762 761.447 277.851 752.877C277.937 752.696 278.019 752.513 278.104 752.331Z"/>
	<path fill="#FCFCFC" d="M278.86 208.22C297.009 206.626 316.005 214.215 329.782 225.687C345.029 238.383 355.416 258.276 357.049 278.061Q357.19 279.813 357.243 281.57Q357.296 283.327 357.262 285.084Q357.228 286.842 357.107 288.595Q356.985 290.349 356.777 292.094Q356.569 293.84 356.274 295.572Q355.979 297.305 355.599 299.021Q355.218 300.737 354.753 302.432Q354.288 304.127 353.739 305.797Q353.19 307.467 352.559 309.108Q351.928 310.748 351.216 312.355Q350.504 313.962 349.713 315.532Q348.922 317.102 348.054 318.63Q347.186 320.159 346.244 321.642Q345.301 323.126 344.286 324.561Q343.27 325.996 342.185 327.378Q341.1 328.761 339.947 330.088C327.408 344.692 308.915 354.989 289.624 356.487L288.786 356.558C268.788 358.18 250.595 352.249 235.386 339.222C219.938 325.99 211.17 307.813 209.73 287.577C208.317 267.717 214.179 248.287 227.264 233.205C240.71 217.708 258.536 209.647 278.86 208.22Z"/>
	<path fill="#1A2F4C" d="M310.264 238.593C316.727 237.88 322.466 239.19 327.565 243.402C332.287 247.304 335.055 252.366 335.532 258.502C336.498 270.96 328.605 277.591 320.769 285.721C317.38 289.237 314.229 292.978 310.984 296.626C305.191 303.139 294.268 316.215 287.765 321.025C284.517 323.428 280.58 325.366 276.474 325.492C268.603 325.735 262.727 318.623 257.463 313.676C249.106 305.529 231.55 293.744 230.334 281.854C229.751 276.151 231.442 270.275 235.249 265.952C239.173 261.495 244.908 259.093 250.774 258.726C261.229 258.072 268.188 263.941 275.391 270.449C283.349 262.204 294.871 247.566 303.847 241.457C305.807 240.123 308.045 239.374 310.264 238.593Z"/>
	<path fill="#FCFCFC" d="M313.593 254.468C314.037 254.532 314.482 254.591 314.921 254.687C316.63 255.061 317.959 255.628 318.832 257.275C319.543 258.614 319.523 260.022 319.184 261.451C318.794 263.095 317.99 264.643 316.987 265.996C313.103 271.231 281.52 305.344 277.123 308.198L276.825 307.316L276.69 308.299C271.822 306.346 259.836 293.72 255.057 289.42C252.859 287.665 250.286 285.607 248.513 283.433C247.117 281.721 246.259 280.198 246.523 277.92C247.189 276.691 247.803 275.994 249.081 275.417C258.003 271.388 266.577 287.749 274.476 290.326C275.73 290.736 277.141 290.763 278.321 290.105C281.503 288.328 284.373 284.261 286.821 281.555C291.639 276.232 308.26 257.168 313.593 254.468Z"/>
	<path fill="#FCFCFC" d="M735.835 666.717C754.57 665.426 774.269 672.464 788.616 684.412C804.319 697.489 813.061 714.567 814.878 734.819C816.619 754.224 809.494 774.436 796.936 789.209C784.719 803.581 764.766 813.403 746.017 814.999Q745.266 815.079 744.513 815.148C726.018 816.852 705.511 809.713 691.374 797.849C676.699 785.534 667.333 766.219 665.769 747.226C664.196 728.122 671.411 707.369 683.812 692.826C697.182 677.148 715.444 668.421 735.835 666.717Z"/>
	<path fill="#1A2F4C" d="M754.214 704.739L768.944 704.507C777.939 704.354 786.722 704.013 793.594 710.937C800.609 718.005 801.094 727.111 801.107 736.427C801.121 746.462 801.993 757.654 794.105 765.227C790.962 768.244 787.272 770.171 783.042 771.154C775.644 772.874 767.37 772.104 759.8 772.098L726.782 772.071C718.606 772.018 700.171 773.503 693.302 771.832C690.691 771.197 688.527 769.947 686.588 768.095C681.512 763.248 679.707 756.286 679.458 749.486C679.001 736.98 677.266 718.92 686.752 709.195C688.547 707.355 690.746 705.974 693.267 705.401C700.012 703.869 708.165 704.905 715.094 704.922Q734.655 705.004 754.214 704.739Z"/>
	<path fill="#FCFCFC" d="M695.174 746.729C724.319 746.699 753.548 746.073 782.682 746.492C783.377 746.894 784.391 746.663 785.194 746.629C785.718 747.474 785.861 747.933 785.854 748.956C785.838 751.67 784.077 754.267 782.165 756.003C779.066 757.224 776.116 757.407 772.82 757.422L723.396 757.405C715.531 757.399 706.985 758.133 699.214 757.255C697.722 757.086 696.431 756.867 695.428 755.624C693.9 753.733 693.987 750.329 694.312 748.045C694.462 746.997 694.255 747.421 695.174 746.729Z"/>
	<path fill="#FCFCFC" d="M736.163 719.743L761.86 719.62C766.833 719.611 772.077 719.291 777.002 719.925C779.275 720.217 782.085 720.806 783.862 722.375C785.356 723.694 786.547 727.37 786.565 729.307C786.576 730.42 786.45 730.56 785.721 731.304C780.121 731.808 774.384 731.425 768.76 731.344Q756.818 731.224 744.875 731.255Q719.422 731.357 693.97 731.069C693.902 727.697 693.403 724.171 695.25 721.191C698.608 718.912 729.88 719.771 736.163 719.743Z"/>
	<path fill="#FCFCFC" d="M732.767 207.694C751.207 205.267 770.233 211.212 784.954 222.269Q786.441 223.378 787.871 224.559Q789.302 225.74 790.672 226.99Q792.043 228.24 793.351 229.556Q794.658 230.872 795.9 232.25Q797.141 233.629 798.313 235.067Q799.485 236.505 800.585 237.999Q801.685 239.492 802.71 241.038Q803.735 242.584 804.683 244.179Q805.631 245.774 806.499 247.413Q807.367 249.052 808.154 250.732Q808.941 252.412 809.644 254.129Q810.347 255.845 810.965 257.594Q811.583 259.344 812.114 261.121Q812.645 262.898 813.088 264.7Q813.531 266.501 813.885 268.322Q814.239 270.143 814.503 271.979Q814.773 273.808 814.952 275.647Q815.131 277.487 815.219 279.334Q815.306 281.18 815.301 283.029Q815.297 284.877 815.2 286.723Q815.104 288.569 814.915 290.408Q814.727 292.247 814.448 294.074Q814.169 295.901 813.799 297.713Q813.429 299.524 812.97 301.314Q812.51 303.105 811.962 304.87Q811.414 306.636 810.78 308.372Q810.145 310.108 809.424 311.81Q808.704 313.512 807.9 315.177Q807.095 316.841 806.209 318.464Q805.323 320.086 804.358 321.662Q803.393 323.239 802.35 324.765Q801.307 326.291 800.19 327.764C787.942 343.77 770.522 353.659 750.607 356.376C730.535 358.496 710.858 353.787 694.888 341.121Q693.46 339.994 692.09 338.798Q690.719 337.602 689.41 336.339Q688.101 335.076 686.855 333.751Q685.61 332.425 684.432 331.039Q683.254 329.653 682.146 328.21Q681.038 326.768 680.003 325.272Q678.968 323.776 678.008 322.231Q677.048 320.686 676.166 319.095Q675.284 317.504 674.481 315.872Q673.679 314.239 672.959 312.569Q672.238 310.899 671.601 309.195Q670.964 307.491 670.413 305.758Q669.861 304.025 669.396 302.266Q668.931 300.508 668.553 298.728Q668.176 296.949 667.887 295.153Q667.598 293.357 667.398 291.549C665.105 270.105 670.172 251.393 683.817 234.644Q684.938 233.246 686.126 231.904Q687.314 230.562 688.566 229.28Q689.818 227.998 691.132 226.779Q692.445 225.56 693.817 224.407Q695.188 223.253 696.615 222.168Q698.041 221.084 699.519 220.07Q700.997 219.056 702.522 218.116Q704.048 217.176 705.618 216.312Q707.188 215.447 708.798 214.661Q710.408 213.874 712.055 213.168Q713.702 212.461 715.381 211.836Q717.061 211.211 718.769 210.669Q720.477 210.127 722.21 209.669Q723.942 209.211 725.695 208.838Q727.448 208.466 729.217 208.18Q730.986 207.893 732.767 207.694Z"/>
	<path fill="#1A2F4C" d="M761.395 241.194C769.225 241.372 776.476 244.096 782.167 249.541Q782.679 250.028 783.166 250.54Q783.653 251.052 784.114 251.588Q784.574 252.124 785.007 252.683Q785.44 253.241 785.845 253.821Q786.249 254.4 786.623 254.999Q786.998 255.599 787.342 256.216Q787.686 256.833 787.998 257.467Q788.311 258.101 788.591 258.75Q788.871 259.399 789.118 260.061Q789.365 260.723 789.578 261.397Q789.791 262.07 789.971 262.754Q790.15 263.438 790.294 264.129Q790.439 264.821 790.548 265.519Q790.657 266.217 790.732 266.92Q790.806 267.623 790.844 268.329Q790.883 269.034 790.886 269.741C790.911 278.783 787.067 285.446 780.935 291.786C774.504 298.436 767.834 304.871 761.307 311.429C756.434 316.325 751.595 321.838 746.141 326.057C744.376 327.422 741.816 329.273 739.488 329.2C732.97 328.997 726.892 320.62 722.744 316.147L706.978 300.787C698.165 292.201 689.238 284.744 688.624 271.507Q688.596 270.801 688.603 270.095Q688.61 269.389 688.652 268.683Q688.693 267.978 688.77 267.276Q688.846 266.574 688.958 265.876Q689.069 265.179 689.214 264.487Q689.359 263.796 689.539 263.113Q689.718 262.43 689.931 261.756Q690.144 261.083 690.389 260.421Q690.635 259.758 690.913 259.109Q691.192 258.46 691.501 257.825Q691.811 257.19 692.152 256.572Q692.493 255.953 692.864 255.352Q693.235 254.751 693.635 254.169Q694.035 253.586 694.464 253.025Q694.892 252.463 695.348 251.923Q695.803 251.384 696.285 250.867Q696.786 250.324 697.314 249.807Q697.842 249.29 698.395 248.8Q698.948 248.31 699.525 247.848Q700.102 247.387 700.701 246.954Q701.301 246.522 701.921 246.121Q702.541 245.719 703.181 245.349Q703.82 244.979 704.477 244.641Q705.135 244.303 705.808 243.999Q706.481 243.695 707.169 243.425Q707.857 243.155 708.557 242.919Q709.258 242.684 709.969 242.484Q710.68 242.284 711.401 242.12Q712.121 241.956 712.849 241.828Q713.577 241.7 714.31 241.609Q715.043 241.517 715.78 241.463Q716.517 241.408 717.256 241.391C726.408 241.139 732.48 245.359 738.884 251.276C745.265 244.934 752.534 242.01 761.395 241.194Z"/>
	<path fill="#FCFCFC" d="M714.665 257.521C727.47 256.821 726.597 265.345 734.251 271.337C744.655 279.482 748.913 258.453 761.075 257.474C764.54 257.195 767.812 258.391 770.346 260.76C772.849 263.102 774.448 266.452 774.528 269.895C774.708 277.672 765.924 284.212 760.917 289.27Q750.055 299.529 739.316 309.918C733.014 304.916 709.609 282.503 706.289 276.115C704.778 273.206 704.646 269.289 705.77 266.232C707.375 261.868 710.592 259.422 714.665 257.521Z"/>
	<path fill="#FCFCFC" d="M362.133 240.783C404.177 217.98 435.887 208.379 483.075 201.817C486.746 210.359 491.979 216.883 500.809 220.384C508.107 223.279 516.641 223.155 523.78 219.848C532.082 216.003 536.43 209.644 540.701 201.833C549.745 203.192 558.862 204.155 567.852 205.841C597.887 211.473 634.929 222.58 660.239 239.95C650.261 262.34 647.543 285.801 654.523 309.593C663.543 334.54 680.617 354.516 704.904 365.801C725.708 375.467 749.7 375.259 770.984 367.353Q776.971 365.091 782.925 362.742C787.38 371.582 792.225 380.132 796.344 389.153C805.647 409.523 812.641 431.708 817.04 453.658C818.966 463.272 819.962 472.972 821.538 482.632C812.637 486.948 806.093 492.4 802.797 501.986Q802.544 502.722 802.328 503.47Q802.112 504.218 801.932 504.976Q801.752 505.734 801.61 506.499Q801.467 507.264 801.362 508.036Q801.257 508.807 801.19 509.583Q801.123 510.359 801.093 511.137Q801.064 511.915 801.073 512.693Q801.081 513.472 801.127 514.249Q801.174 515.026 801.258 515.8Q801.342 516.574 801.464 517.343Q801.586 518.112 801.746 518.875Q801.905 519.637 802.101 520.39Q802.297 521.144 802.53 521.887Q802.762 522.63 803.031 523.36Q803.3 524.091 803.604 524.808Q803.907 525.525 804.246 526.226C807.918 533.694 813.946 538.423 821.662 541.199C818.435 574.667 810.75 606.098 796.715 636.729C792.847 645.171 788.792 653.709 783.428 661.318C760.13 649.903 734.94 646.85 710.172 655.418C688.636 662.868 669.076 680.85 659.173 701.313C656.145 707.571 654.138 714.119 652.292 720.797C647.555 745.537 650.699 760.797 660.248 783.809C624.813 806.764 581.84 818.796 539.941 821.862C536.814 813.875 532.602 807.925 524.435 804.355Q523.752 804.064 523.055 803.807Q522.359 803.55 521.65 803.328Q520.942 803.106 520.223 802.919Q519.505 802.732 518.778 802.582Q518.051 802.431 517.317 802.317Q516.583 802.202 515.845 802.125Q515.107 802.047 514.365 802.006Q513.624 801.965 512.882 801.961Q512.139 801.956 511.397 801.989Q510.656 802.022 509.916 802.091Q509.177 802.161 508.442 802.267Q507.708 802.373 506.979 802.516Q506.25 802.658 505.53 802.837Q504.809 803.015 504.098 803.229Q503.387 803.443 502.688 803.692Q501.988 803.941 501.302 804.225Q500.621 804.499 499.955 804.805Q499.288 805.112 498.637 805.451Q497.987 805.79 497.354 806.161Q496.72 806.532 496.106 806.933Q495.492 807.335 494.898 807.766Q494.305 808.197 493.733 808.657Q493.161 809.117 492.613 809.604Q492.065 810.092 491.541 810.606Q491.017 811.12 490.519 811.659Q490.021 812.198 489.551 812.761Q489.08 813.323 488.638 813.909Q488.195 814.494 487.782 815.101Q487.369 815.707 486.987 816.333Q486.604 816.959 486.252 817.603Q485.901 818.247 485.582 818.908Q485.262 819.568 484.976 820.244Q484.314 821.836 483.748 823.464C455.832 819.291 427.845 813.426 401.575 802.834C388.745 797.662 376.265 791.188 363.9 784.984C372.28 764.21 377.591 749.769 373.375 726.703C372.605 720.526 370.574 714.036 368.297 708.256C361.319 690.539 347.211 673.778 330.856 663.958C325.913 660.991 320.379 658.867 315.091 656.587C288.317 647.987 265.813 650.056 240.748 662.153C219.707 626.974 204.279 580.936 201.911 539.899Q202.97 539.442 204.02 538.965C211.788 535.424 217.637 529.385 220.57 521.311C223.195 514.085 223.003 506.478 219.707 499.486C215.953 491.523 209.703 485.782 201.419 482.835C201.74 452.913 215.708 409.919 228.766 383.103C232.228 375.994 236.396 369.143 240.517 362.399Q241.633 362.944 242.755 363.474C267.639 375.227 292.542 374.822 318.123 365.653Q322.183 363.617 326.169 361.438C348 349.495 362.814 330.621 369.765 306.808C375.834 282.971 372.339 262.76 362.133 240.783Z"/>
	<path fill="#1A2F4C" d="M517.767 664.54Q518.96 664.423 520.157 664.358C521.874 664.279 522.814 664.471 524.122 665.683C526.146 670.228 525.757 684.18 524.612 689.086C524.147 691.081 523.274 691.878 521.586 692.931C521.282 692.932 520.979 692.937 520.675 692.932C518.814 692.904 517.389 692.664 516.091 691.184C512.82 687.455 513.924 673.672 514.752 668.88C515.159 666.526 515.882 665.825 517.767 664.54Z"/>
	<path fill="#1A2F4C" d="M512.084 306.44C512.961 306.429 513.973 306.36 514.821 306.638C515.838 306.972 516.665 307.819 517.151 308.751C519.145 312.575 519.108 329.396 517.776 333.69C517.148 335.715 516.111 336.401 514.304 337.393C513.301 337.253 512.26 337.129 511.283 336.856C510.197 336.552 509.256 335.758 508.743 334.757C506.689 330.751 507.093 314.38 508.527 309.906C509.174 307.889 510.329 307.361 512.084 306.44Z"/>
	<path fill="#1A2F4C" d="M522.479 339.597C527.681 339.053 533.133 339.235 538.362 339.301C541.729 339.344 547.746 339.459 549.894 342.478C550.316 343.071 550.572 343.859 550.455 344.582C550.097 346.786 548.613 348.524 546.959 349.909C541.063 350.401 534.92 350.472 529.004 350.378C526.252 350.334 522.556 350.085 520.697 347.72C519.961 346.784 519.803 345.711 519.864 344.555C519.982 342.29 520.825 341.046 522.479 339.597Z"/>
	<path fill="#1A2F4C" d="M510.211 351.565C512.37 351.477 514.738 351.132 516.608 352.438C517.891 353.335 518.099 355.394 518.234 356.837C518.755 362.402 518.934 373.131 517.559 378.37C517.187 379.789 516.373 380.84 515.447 381.946Q514.277 382.082 513.099 382.065C511.545 382.029 510.558 381.528 509.549 380.32C506.237 376.358 506.953 360.401 507.814 355.412C508.141 353.512 508.673 352.7 510.211 351.565Z"/>
	<path fill="#1A2F4C" d="M517.946 619.976L518.837 619.976C520.806 619.989 522.223 620.129 523.609 621.727C526.878 625.495 526.067 640.447 525.133 645.292C524.744 647.313 523.861 648.096 522.185 649.169C519.589 649.461 517.476 649.993 515.3 648.325C513.185 643.401 513.831 629.396 514.893 624.037C515.315 621.904 516.162 621.116 517.946 619.976Z"/>
	<path fill="#1A2F4C" d="M479.355 339.531C484.752 339.202 500.232 338.244 504.551 340.578C505.8 341.253 506.297 341.958 506.615 343.351C506.965 344.882 506.451 347.42 505.64 348.74C505.009 349.768 504.727 349.749 503.627 350.06C497.172 350.325 490.173 350.846 483.748 350.399C481.357 350.233 478.187 349.792 476.679 347.659C475.831 346.458 475.895 344.752 476.167 343.364C476.548 341.423 477.841 340.561 479.355 339.531Z"/>
	<path fill="#1A2F4C" d="M533.399 650.198C539.578 650.113 549.252 648.713 554.785 651.044C556.182 651.632 557.368 652.596 557.816 654.11C558.411 656.121 557.425 658.219 556.379 659.879C554.921 660.926 553.889 661.136 552.124 661.368C546.155 661.129 534.497 662.745 529.435 660.404C528.241 659.852 527.218 658.954 526.867 657.638C526.475 656.163 527.142 654.274 527.937 653.019C529.225 650.988 531.227 650.636 533.399 650.198Z"/>
	<path fill="#1A2F4C" d="M484.24 650.544C488.65 650.348 493.072 650.576 497.486 650.514C500.464 650.472 503.498 650.074 506.468 650.298C508.309 650.437 510.257 650.912 511.346 652.556C512.446 654.216 512.4 656.687 511.815 658.521C511.292 660.163 510.221 660.772 508.805 661.507C501.758 661.552 493.674 662.368 486.747 661.343C484.688 661.038 482.155 660.307 481.005 658.398C480.351 657.313 480.315 655.808 480.616 654.607C481.115 652.608 482.645 651.628 484.24 650.544Z"/>
	<path fill="#1A2F4C" d="M392.72 394.175C392.974 394.164 393.228 394.15 393.483 394.143C401.413 393.926 409.279 396.8 414.904 402.429Q415.621 403.144 416.289 403.905Q416.956 404.667 417.57 405.472Q418.184 406.278 418.742 407.123Q419.301 407.968 419.8 408.849Q420.3 409.73 420.738 410.642Q421.177 411.555 421.553 412.496Q421.929 413.436 422.24 414.4Q422.551 415.363 422.796 416.346C425.034 425.161 424.073 435.497 424.137 444.57L424.412 484.504L520.34 484.87C546.698 484.753 573.175 484.018 599.517 484.849Q599.762 463.984 599.66 443.117C599.635 435.803 598.777 427.418 599.966 420.225C600.893 414.62 603.126 409.357 606.781 404.981Q607.247 404.426 607.74 403.894Q608.233 403.362 608.752 402.856Q609.27 402.349 609.813 401.869Q610.356 401.389 610.923 400.936Q611.489 400.483 612.077 400.059Q612.665 399.635 613.273 399.24Q613.881 398.845 614.508 398.482Q615.135 398.118 615.779 397.785Q616.424 397.453 617.084 397.152Q617.744 396.852 618.417 396.585Q619.092 396.318 619.778 396.085Q620.464 395.851 621.161 395.652Q621.859 395.453 622.565 395.288Q623.271 395.124 623.984 394.995Q624.698 394.866 625.416 394.772Q626.135 394.678 626.858 394.62C635.144 393.943 643.23 396.799 649.487 402.222C656.863 408.615 659.221 416.219 659.965 425.757C664.551 424.242 669.305 423.137 674.155 423.109C682.355 423.062 689.823 426.21 695.58 432.013C704.748 441.255 705.145 451.738 705.055 464.004L704.995 481.391C713.152 482.058 720.076 483.354 726.384 488.907C732.899 494.643 736.941 503.396 737.4 512.038C737.86 520.689 734.287 529.287 728.462 535.613C721.971 542.661 714.43 544.984 705.013 545.36C705.049 557.126 706.817 572.613 702.238 583.498C699.084 590.998 693.092 597.242 685.467 600.211C676.906 603.543 667.668 602.978 659.383 599.209C659.546 606.72 658.205 612.889 654.027 619.182C649.175 626.489 642.734 630.188 634.214 631.894Q632.122 632.126 630.017 632.141C622.049 632.205 614.444 629.548 608.731 623.841C604.666 619.779 602.064 614.512 600.784 608.948C598.748 600.1 599.691 590.307 599.676 581.266L599.559 544.195L424.512 543.879L424.402 582.5C424.422 590.996 425.382 600.672 423.551 608.986Q423.338 609.965 423.061 610.927Q422.784 611.89 422.445 612.832Q422.106 613.775 421.706 614.693Q421.305 615.611 420.846 616.501Q420.387 617.391 419.87 618.249Q419.353 619.107 418.782 619.93Q418.21 620.752 417.586 621.535Q416.961 622.318 416.287 623.059C410.699 629.227 402.989 632.72 394.7 633.09C386.72 633.446 379.2 630.579 373.348 625.2C365.538 618.021 363.514 609.615 363.048 599.35C358.754 601.13 354.97 602.46 350.251 602.583C342.254 602.792 334.025 599.692 328.318 594.053Q327.63 593.367 326.988 592.639Q326.346 591.911 325.752 591.143Q325.157 590.375 324.614 589.571Q324.07 588.767 323.579 587.929Q323.088 587.091 322.651 586.224Q322.215 585.357 321.835 584.463Q321.455 583.57 321.133 582.654Q320.811 581.738 320.548 580.803C317.864 571.024 319.047 552.77 319.021 542.075Q314.737 542.219 310.451 542.266C304.831 542.292 299.441 540.835 295.439 536.693C288.134 529.132 288.851 516.607 288.996 506.816C289.093 500.27 290.625 494.191 295.579 489.563C302.401 483.19 310.474 483.548 319.066 484.026C319.494 472.492 317.839 451.898 321.459 441.841C324.089 434.535 329.518 428.771 336.566 425.541C345.916 421.258 354.178 422.999 363.364 426.464C364.263 418.357 365.844 411.351 371.131 404.89C376.719 398.061 384.181 395.078 392.72 394.175Z"/>
	<path fill="#71B4CB" d="M306.658 500.133L319.481 500.417C319.494 508.377 320.163 517.189 319.14 525.044C318.963 526.403 318.958 526.613 317.933 527.431C314.923 527.529 310.279 528.295 307.895 526.181C305.464 524.026 304.597 520.283 304.388 517.182C304.059 512.317 303.322 504.023 306.658 500.133Z"/>
	<path fill="#71B4CB" d="M705.011 497.981C709.353 497.681 712.999 497.897 716.573 500.737C719.731 503.248 721.568 507.064 722.001 511.035C722.586 516.408 720.755 521.011 717.35 525.07C715.061 527.179 710.089 529.886 706.86 529.733C705.632 529.675 705.571 529.598 704.805 528.657C703.815 522.145 704.165 504.763 705.011 497.981Z"/>
	<path fill="#71B4CB" d="M349.434 438.672C352.418 438.842 354.985 439.245 357.468 441.034C360.442 443.177 362.422 446.766 362.946 450.363C363.986 457.505 363.532 465.138 363.558 472.353L363.658 509.212L363.76 550.616C363.771 558.635 364.236 567.015 363.362 574.981C363.09 577.462 362.536 579.405 360.967 581.405C358.504 584.545 355.004 586.112 351.145 586.683C347.516 586.666 344.175 586.323 341.108 584.173C338.674 582.466 336.514 579.503 336.052 576.542C335.001 569.818 335.48 562.559 335.471 555.754L335.464 522.201L335.448 478.004C335.45 469.645 335.054 461.042 335.762 452.713C336.031 449.548 336.415 446.789 338.38 444.17C341.112 440.529 345.126 439.278 349.434 438.672Z"/>
	<path fill="#71B4CB" d="M672.274 438.636C674.993 438.739 677.378 438.954 679.909 440.086C683.343 441.621 686.372 444.503 687.581 448.131C688.406 450.604 688.572 453.667 688.692 456.265C689.643 476.878 688.969 497.86 689.028 518.514C689.077 535.616 690.039 553.509 688.86 570.504C688.667 573.291 688.2 575.707 686.875 578.206C684.667 582.372 681.32 584.562 676.949 585.988C673.313 586.444 669.702 586.129 666.47 584.266C663.996 582.841 661.485 580.067 660.813 577.23C659.076 569.9 659.917 561.134 659.923 553.592L659.974 518.523L659.996 475.855C660.001 468.087 659.608 460.112 660.188 452.377C660.394 449.641 660.936 447.301 662.406 444.951C664.739 441.222 668.083 439.485 672.274 438.636Z"/>
	<path fill="#71B4CB" d="M424.261 501.03L599.574 501.009L599.546 528.419L424.296 528.14L424.261 501.03Z"/>
	<path fill="#71B4CB" d="M628.858 410.094C631.18 410.143 633.433 410.463 635.575 411.412C638.996 412.928 641.737 415.71 642.903 419.312C645.069 426.001 643.956 486.445 643.963 498.151L643.986 562.697C643.988 574.837 644.36 587.117 643.821 599.241C643.672 602.616 643.383 605.654 641.805 608.715C639.705 612.79 636.216 614.868 631.987 616.217C628.685 616.21 626.002 615.921 623.001 614.405C620.058 612.918 617.432 610.342 616.553 607.081C614.997 601.308 615.975 589.581 615.975 583.278L616.004 533.451L615.909 464.806C615.859 451.837 615.326 438.651 615.959 425.703C616.124 422.331 616.264 419.408 618.203 416.515C620.678 412.82 624.616 410.921 628.858 410.094Z"/>
	<path fill="#71B4CB" d="M391.894 410.058C394.493 409.938 396.82 409.919 399.288 410.87C402.962 412.285 405.79 414.949 407.205 418.657C408.159 421.156 408.158 424.405 408.256 427.071C408.645 437.607 408.397 448.257 408.433 458.806L408.575 517.882L408.536 571.142C408.526 581.413 408.8 591.791 408.377 602.049C408.277 604.487 408.17 607.009 407.059 609.23C405.048 613.248 401.564 615.222 397.437 616.549C394.122 617.023 390.791 617.079 387.672 615.699C384.71 614.387 381.838 611.312 380.89 608.192C378.982 601.914 380.083 583.013 380.1 575.642L380.218 522.669C380.256 491.048 379.017 459.076 380.226 427.494C380.364 423.899 380.307 419.56 382.202 416.403C384.378 412.777 387.98 411.145 391.894 410.058Z"/>
</svg>
